<svg width="63" height="51" viewBox="0 0 63 51" fill="none" xmlns="http://www.w3.org/2000/svg">
<path opacity="0.5" d="M62.9847 0.342947L47.5705 46.7458C47.4922 46.9564 47.1787 47.0196 46.9958 46.8721L36.6761 38.5521L44.4093 15.298C44.4877 15.0874 44.2526 14.8978 43.9913 14.961L15.1486 21.1958L4.8812 12.9178C4.69832 12.7704 4.7767 12.5176 5.03795 12.4544L62.5667 0.00593174C62.8279 -0.0361952 63.0631 0.153376 62.9847 0.342947Z" fill="#00B37E"/>
<path opacity="0.5" d="M36.6756 38.5517L32.7045 50.5579C32.6261 50.7685 32.3126 50.8317 32.1297 50.6842L0.0996688 24.8815C-0.083211 24.734 -0.00483435 24.4813 0.256422 24.4181L15.1481 21.1954L36.6756 38.5517Z" fill="#00B37E"/>
<path d="M44.408 15.2976L36.6748 38.5517L15.1473 21.1954L43.99 14.9606C44.2513 14.8974 44.4864 15.087 44.408 15.2976Z" fill="#00B37E"/>
</svg>
